REM DIRINDEX 1\2,1\3,1\4,1\5\6,1\5\7,1\8
REM DIRNAME folder01,folder02,folder03,folder04,folder05,folder06,folder07,folder08
TITLE ""
FILE "061 【061】Unit4 (0685 bleak_0696 disobedience).mp3" MP3
  TRACK 01 AUDIO
    TITLE "0:"
    INDEX 01 00:00:00
  TRACK 02 AUDIO
    TITLE "2:cjc115_2398"
    INDEX 01 00:00:07
  TRACK 03 AUDIO
    TITLE "0:"
    INDEX 01 00:01:09
  TRACK 04 AUDIO
    TITLE "3:cjc115_2399"
    INDEX 01 00:01:21
  TRACK 05 AUDIO
    TITLE "0:"
    INDEX 01 00:02:69
  TRACK 06 AUDIO
    TITLE "4:cjc115_2400"
    INDEX 01 00:02:71
  TRACK 07 AUDIO
    TITLE "0:"
    INDEX 01 00:06:02
  TRACK 08 AUDIO
    TITLE "2:cjc115_2401"
    INDEX 01 00:07:11
  TRACK 09 AUDIO
    TITLE "0:"
    INDEX 01 00:08:11
  TRACK 10 AUDIO
    TITLE "3:cjc115_2402"
    INDEX 01 00:08:21
  TRACK 11 AUDIO
    TITLE "0:"
    INDEX 01 00:10:41
  TRACK 12 AUDIO
    TITLE "4:cjc115_2403"
    INDEX 01 00:10:51
  TRACK 13 AUDIO
    TITLE "0:"
    INDEX 01 00:14:21
  TRACK 14 AUDIO
    TITLE "2:cjc115_2404"
    INDEX 01 00:15:36
  TRACK 15 AUDIO
    TITLE "0:"
    INDEX 01 00:17:08
  TRACK 16 AUDIO
    TITLE "3:cjc115_2405"
    INDEX 01 00:17:16
  TRACK 17 AUDIO
    TITLE "0:"
    INDEX 01 00:19:46
  TRACK 18 AUDIO
    TITLE "4:cjc115_2406"
    INDEX 01 00:19:54
  TRACK 19 AUDIO
    TITLE "0:"
    INDEX 01 00:23:61
  TRACK 20 AUDIO
    TITLE "2:cjc115_2407"
    INDEX 01 00:24:67
  TRACK 21 AUDIO
    TITLE "0:"
    INDEX 01 00:26:11
  TRACK 22 AUDIO
    TITLE "3:cjc115_2408"
    INDEX 01 00:26:17
  TRACK 23 AUDIO
    TITLE "0:"
    INDEX 01 00:28:31
  TRACK 24 AUDIO
    TITLE "4:cjc115_2409"
    INDEX 01 00:28:41
  TRACK 25 AUDIO
    TITLE "0:"
    INDEX 01 00:32:62
  TRACK 26 AUDIO
    TITLE "2:cjc115_2410"
    INDEX 01 00:33:71
  TRACK 27 AUDIO
    TITLE "0:"
    INDEX 01 00:35:00
  TRACK 28 AUDIO
    TITLE "3:cjc115_2411"
    INDEX 01 00:35:10
  TRACK 29 AUDIO
    TITLE "0:"
    INDEX 01 00:36:52
  TRACK 30 AUDIO
    TITLE "4:cjc115_2412"
    INDEX 01 00:36:54
  TRACK 31 AUDIO
    TITLE "0:"
    INDEX 01 00:40:40
  TRACK 32 AUDIO
    TITLE "2:cjc115_2413"
    INDEX 01 00:41:45
  TRACK 33 AUDIO
    TITLE "0:"
    INDEX 01 00:42:70
  TRACK 34 AUDIO
    TITLE "3:cjc115_2414"
    INDEX 01 00:43:03
  TRACK 35 AUDIO
    TITLE "0:"
    INDEX 01 00:46:06
  TRACK 36 AUDIO
    TITLE "4:cjc115_2415"
    INDEX 01 00:46:11
  TRACK 37 AUDIO
    TITLE "0:"
    INDEX 01 00:50:70
  TRACK 38 AUDIO
    TITLE "2:cjc115_2416"
    INDEX 01 00:52:02
  TRACK 39 AUDIO
    TITLE "0:"
    INDEX 01 00:53:23
  TRACK 40 AUDIO
    TITLE "3:cjc115_2417"
    INDEX 01 00:53:31
  TRACK 41 AUDIO
    TITLE "0:"
    INDEX 01 00:55:26
  TRACK 42 AUDIO
    TITLE "4:cjc115_2418"
    INDEX 01 00:55:34
  TRACK 43 AUDIO
    TITLE "0:"
    INDEX 01 01:00:13
  TRACK 44 AUDIO
    TITLE "2:cjc115_2419"
    INDEX 01 01:01:21
  TRACK 45 AUDIO
    TITLE "0:"
    INDEX 01 01:02:34
  TRACK 46 AUDIO
    TITLE "3:cjc115_2420"
    INDEX 01 01:02:40
  TRACK 47 AUDIO
    TITLE "0:"
    INDEX 01 01:04:56
  TRACK 48 AUDIO
    TITLE "4:cjc115_2421"
    INDEX 01 01:04:64
  TRACK 49 AUDIO
    TITLE "0:"
    INDEX 01 01:08:44
  TRACK 50 AUDIO
    TITLE "2:cjc115_2422"
    INDEX 01 01:09:52
  TRACK 51 AUDIO
    TITLE "0:"
    INDEX 01 01:10:65
  TRACK 52 AUDIO
    TITLE "3:cjc115_2423"
    INDEX 01 01:10:73
  TRACK 53 AUDIO
    TITLE "0:"
    INDEX 01 01:12:28
  TRACK 54 AUDIO
    TITLE "4:cjc115_2424"
    INDEX 01 01:12:36
  TRACK 55 AUDIO
    TITLE "0:"
    INDEX 01 01:15:70
  TRACK 56 AUDIO
    TITLE "2:cjc115_2425"
    INDEX 01 01:17:02
  TRACK 57 AUDIO
    TITLE "0:"
    INDEX 01 01:18:06
  TRACK 58 AUDIO
    TITLE "3:cjc115_2426"
    INDEX 01 01:18:11
  TRACK 59 AUDIO
    TITLE "0:"
    INDEX 01 01:20:59
  TRACK 60 AUDIO
    TITLE "4:cjc115_2427"
    INDEX 01 01:20:69
  TRACK 61 AUDIO
    TITLE "0:"
    INDEX 01 01:23:50
  TRACK 62 AUDIO
    TITLE "2:cjc115_2428"
    INDEX 01 01:24:57
  TRACK 63 AUDIO
    TITLE "0:"
    INDEX 01 01:26:17
  TRACK 64 AUDIO
    TITLE "3:cjc115_2429"
    INDEX 01 01:26:27
  TRACK 65 AUDIO
    TITLE "0:"
    INDEX 01 01:28:65
  TRACK 66 AUDIO
    TITLE "4:cjc115_2430"
    INDEX 01 01:28:72
  TRACK 67 AUDIO
    TITLE "0:"
    INDEX 01 01:33:17
  TRACK 68 AUDIO
    TITLE "2:cjc115_2431"
    INDEX 01 01:34:24
  TRACK 69 AUDIO
    TITLE "0:"
    INDEX 01 01:35:67
  TRACK 70 AUDIO
    TITLE "3:cjc115_2432"
    INDEX 01 01:36:01
  TRACK 71 AUDIO
    TITLE "0:"
    INDEX 01 01:38:26
  TRACK 72 AUDIO
    TITLE "4:cjc115_2433"
    INDEX 01 01:38:32
  TRACK 73 AUDIO
    TITLE "0:"
    INDEX 01 01:42:67
